#!OML:ASF I:\Actors\actors\Patient Classification 2\Patient 1\Session 1\actor1.ASF
:FULLY-SPECIFIED
:DEGREES
632
root -0.888297 18.7247 5.61751 0.74272 0.0930669 -1.34501
lowerback 3.98923 0.335292 0.340127
upperback -1.90811 0.48633 0.479823
thorax -4.20658 0.239264 0.267405
lowerneck -14.3203 -2.47082 -1.61341
upperneck 20.7877 -3.92529 3.76155
head 8.9868 -1.56622 1.08096
rclavicle -4.82208e-016 -1.11816e-015
rhumerus -12.5499 31.2565 -82.8418
rradius 81.5535
rwrist -22.9462
rhand -7.92415 -49.5765
rfingers 7.12502
rthumb 17.9818 -438.765
lclavicle -4.82208e-016 -1.11816e-015
lhumerus -15.0305 -28.2744 93.3735
lradius 84.7676
lwrist 36.338
lhand -14.3559 -10.6407
lfingers 7.12502
lthumb 11.786 19.0077
rfemur 7.58327 2.66606 16.3441
rtibia 6.36111e-015
rfoot -18.5848 -12.28
rtoes -1.48656
lfemur -4.11499 -4.95865 -12.0637
ltibia 20.1152
lfoot -20.3782 12.3625
ltoes -56.0384
633
root -0.886541 18.7227 5.62953 0.703156 0.0442447 -1.43466
lowerback 3.92508 0.330433 0.490465
upperback -1.96285 0.487731 0.464363
thorax -4.22568 0.235501 0.167281
lowerneck -14.3112 -2.28084 -1.39515
upperneck 20.9886 -3.67957 3.58291
head 9.03892 -1.45052 1.01391
rclavicle 3.68528e-015 -2.33572e-015
rhumerus -14.7033 30.2474 -83.6079
rradius 80.9459
rwrist -21.79
rhand -7.0017 -49.9924
rfingers 7.12502
rthumb 18.8692 -439.097
lclavicle 3.68528e-015 -2.33572e-015
lhumerus -16.9039 -27.9708 93.5677
lradius 84.1662
lwrist 36.0124
lhand -13.9311 -10.2345
lfingers 7.12502
lthumb 12.1956 19.39
rfemur 7.66498 2.71572 16.4443
rtibia -1.43125e-014
rfoot -18.6263 -12.2389
rtoes -1.38582
lfemur -4.00404 -5.17931 -12.0033
ltibia 20.1127
lfoot -20.5501 12.5717
ltoes -55.9883
634
root -0.883866 18.7217 5.64233 0.677798 -0.0225409 -1.45093
lowerback 3.83136 0.32962 0.558228
upperback -2.00958 0.489258 0.445508
thorax -4.22034 0.23406 0.110165
lowerneck -14.2294 -2.06201 -1.27347
upperneck 21.0938 -3.39046 3.50919
head 9.04826 -1.31294 1.00439
rclavicle 2.91033e-015 6.55989e-015
rhumerus -16.8213 29.091 -84.2669
rradius 80.2567
rwrist -20.0402
rhand -5.03988 -50.484
rfingers 7.12502
rthumb 20.7551 -439.394
lclavicle 2.91033e-015 6.55989e-015
lhumerus -18.8055 -27.6539 93.7323
lradius 83.5192
lwrist 35.7734
lhand -13.4534 -9.77907
lfingers 7.12502
lthumb 12.6562 19.8175
rfemur 7.72706 2.78304 16.4585
rtibia 2.54444e-014
rfoot -18.6348 -12.2364
rtoes -1.595
lfemur -3.91164 -5.38879 -12.0291
ltibia 20.1255
lfoot -20.7217 12.7746
ltoes -55.9098
635
root -0.884791 18.7196 5.65711 0.655553 -0.169657 -1.3803
lowerback 3.71181 0.343009 0.442028
upperback -2.04853 0.500308 0.45497
thorax -4.19401 0.243006 0.184901
lowerneck -14.2609 -1.82794 -1.14587
upperneck 21.2881 -3.06872 3.36951
head 9.10787 -1.16437 0.974539
rclavicle -9.62397e-015 -3.97569e-015
rhumerus -18.9049 28.1485 -84.8501
rradius 79.5304
rwrist -18.9364
rhand -4.75909 -50.1424
rfingers 7.12502
rthumb 21.0249 -439.023
lclavicle -9.62397e-015 -3.97569e-015
lhumerus -20.7192 -27.1687 93.9646
lradius 82.7503
lwrist 35.4529
lhand -12.8886 -9.5134
lfingers 7.12502
lthumb 13.2006 20.0487
rfemur 7.78154 2.92907 16.3865
rtibia -7.95139e-015
rfoot -18.6753 -12.2041
rtoes -1.55917
lfemur -3.80985 -5.34091 -12.1237
ltibia 20.1542
lfoot -20.8176 12.8323
ltoes -55.9448
636
root -0.883441 18.7177 5.67037 0.648676 -0.214291 -1.37027
lowerback 3.5852 0.303519 0.411162
upperback -2.07027 0.446467 0.49119
thorax -4.1453 0.217735 0.244124
lowerneck -14.3719 -1.51398 -0.822853
upperneck 21.5424 -2.63375 3.01687
head 9.19568 -0.968926 0.852564
rclavicle 5.14744e-015 1.02623e-014
rhumerus -20.9558 27.3967 -85.3722
rradius 78.8454
rwrist -18.6231
rhand -4.59001 -50.0794
rfingers 7.12502
rthumb 21.1873 -438.942
lclavicle 5.14744e-015 1.02623e-014
lhumerus -22.6468 -26.5766 94.1992
lradius 81.8915
lwrist 35.1041
lhand -12.4263 -9.35934
lfingers 7.12502
lthumb 13.6462 20.1733
rfemur 7.82989 2.97212 16.3788
rtibia 3.33958e-014
rfoot -18.7234 -12.1542
rtoes -1.36199
lfemur -3.75955 -5.24148 -12.1299
ltibia 20.1717
lfoot -20.8351 12.7655
ltoes -56.0125
637
root -0.877943 18.7163 5.68361 0.647718 -0.156997 -1.42309
lowerback 3.47517 0.222391 0.542897
upperback -2.09563 0.344622 0.49767
thorax -4.10839 0.163573 0.18459
lowerneck -14.4518 -1.09214 -0.259607
upperneck 21.7937 -2.07051 2.51694
head 9.27381 -0.710798 0.655601
rclavicle -5.24916e-016 3.72721e-016
rhumerus -23.1437 26.6496 -85.9993
rradius 78.2947
rwrist -18.9254
rhand -4.27349 -50.5787
rfingers 7.12502
rthumb 21.4913 -439.407
lclavicle -5.24916e-016 3.72721e-016
lhumerus -24.6512 -26.0349 94.3787
lradius 81.0242
lwrist 34.9134
lhand -12.3223 -9.11509
lfingers 7.12502
lthumb 13.7464 20.4108
rfemur 7.88233 2.91453 16.4282
rtibia 1.90833e-014
rfoot -18.7421 -12.1359
rtoes -1.45499
lfemur -3.72705 -5.28949 -12.0824
ltibia 20.1665
lfoot -20.845 12.7537
ltoes -56.065
638
root -0.87483 18.7134 5.69928 0.628903 -0.239485 -1.42667
lowerback 3.39156 0.204198 0.636217
upperback -2.13219 0.323007 0.454287
thorax -4.0982 0.149556 0.0893161
lowerneck -14.5052 -0.682356 0.21171
upperneck 22.0677 -1.55229 2.23097
head 9.36516 -0.45786 0.542234
rclavicle 2.05463e-015 1.51573e-015
rhumerus -25.449 25.8595 -86.8067
rradius 77.7653
rwrist -20.1211
rhand -6.50013 -49.9066
rfingers 7.12502
rthumb 19.3515 -438.964
lclavicle 2.05463e-015 1.51573e-015
lhumerus -26.7511 -25.5893 94.5369
lradius 80.1773
lwrist 34.8731
lhand -12.4226 -8.82881
lfingers 7.12502
lthumb 13.6497 20.7036
rfemur 7.94083 2.99708 16.4275
rtibia 4.77083e-015
rfoot -18.7744 -12.1203
rtoes -1.61252
lfemur -3.62421 -5.24847 -12.1016
ltibia 20.1496
lfoot -20.8506 12.8178
ltoes -56.1257
